#!OML:ASF I:\Actors\actors\Patient Classification 1\Patient 1\Session 1\Subject1.ASF
:FULLY-SPECIFIED
:DEGREES
496
root 0.98514 17.3453 10.1035 6.54608 -1.75289 -8.24152
lowerback -10.6001 1.75255 5.52321
upperback -11.2694 2.02425 0.74567
thorax -5.81604 0.662165 -2.18981
lowerneck 0.405009 -6.23859 -6.61965
upperneck 22.3543 -10.7026 11.3717
head 7.74148 -4.85607 4.13498
rclavicle 7.7526e-015 -2.3059e-014
rhumerus -50.3832 28.5543 -105.05
rradius 116.97
rwrist 1.61185
rhand 38.0196 -28.1868
rfingers 7.12502
rthumb 60.7342 -41.1725
lclavicle 7.7526e-015 -2.3059e-014
lhumerus -57.7547 -28.1502 108.942
lradius 112.311
lwrist 5.65819
lhand 0.306707 -25.8113
lfingers 7.12502
lthumb 25.8841 2.44694
rfemur 1.44984 20.9907 26.6037
rtibia 8.38436
rfoot -17.5445 -17.7946
rtoes -4.00102
lfemur 11.8026 -33.7184 -16.424
ltibia -2.1881
lfoot -18.6624 42.854
ltoes -0.21313
497
root 0.979638 17.3168 10.1299 5.69289 -1.65641 -8.28836
lowerback -10.9391 1.65275 5.56714
upperback -10.8796 1.85052 0.791559
thorax -5.21487 0.596303 -2.16433
lowerneck -0.0948896 -6.24212 -6.43444
upperneck 23.7554 -10.8098 11.0925
head 8.29262 -4.85981 3.99728
rclavicle -4.37326e-015 2.22639e-014
rhumerus -46.519 28.2564 -102.719
rradius 118.19
rwrist 8.7886
rhand 30.879 -27.2204
rfingers 7.12502
rthumb 54.4954 -45.7179
lclavicle -4.37326e-015 2.22639e-014
lhumerus -54.8212 -26.8693 107.109
lradius 113.77
lwrist -0.249671
lhand -4.37901 -27.6913
lfingers 7.12502
lthumb 21.39 1.14802
rfemur 2.72478 21.0885 27.1672
rtibia 8.2138
rfoot -17.7688 -18.062
rtoes -4.2955
lfemur 13.0778 -33.4414 -16.9568
ltibia -2.36528
lfoot -18.4472 42.5192
ltoes -0.83258
498
root 0.972714 17.2955 10.1584 4.61357 -1.42576 -8.30417
lowerback -10.469 1.57639 5.87216
upperback -10.7806 1.75488 0.566773
thorax -5.36229 0.516742 -2.58668
lowerneck -0.49013 -6.27312 -6.03782
upperneck 25.2816 -11.0143 10.8862
head 8.88305 -4.88547 3.84563
rclavicle -1.07344e-014 -3.18055e-014
rhumerus -43.0338 27.3155 -100.841
rradius 119.586
rwrist 15.0035
rhand 25.7014 -26.0113
rfingers 7.12502
rthumb 49.8044 -47.3362
lclavicle -1.07344e-014 -3.18055e-014
lhumerus -52.4301 -25.6428 105.423
lradius 115.821
lwrist -5.11962
lhand -8.06154 -29.281
lfingers 7.12502
lthumb 17.8496 -0.0801421
rfemur 4.32127 21.1018 27.8317
rtibia 7.98963
rfoot -17.9716 -18.4738
rtoes -4.66039
lfemur 14.4885 -32.9709 -17.5088
ltibia -2.49838
lfoot -17.9669 41.8901
ltoes -1.82808
499
root 0.966347 17.2795 10.1834 3.78904 -1.25462 -8.33813
lowerback -10.5321 1.53317 5.63357
upperback -10.6404 1.70756 0.70868
thorax -5.18334 0.522525 -2.30484
lowerneck -0.794108 -6.41616 -5.6544
upperneck 26.7424 -11.2335 10.1297
head 9.41697 -4.96946 3.50215
rclavicle -1.35174e-014 -2.14687e-014
rhumerus -39.5809 26.3333 -98.3933
rradius 121.037
rwrist 20.8138
rhand 19.857 -25.3489
rfingers 7.12502
rthumb 44.4018 -49.0803
lclavicle -1.35174e-014 -2.14687e-014
lhumerus -49.712 -23.9681 104.354
lradius 118.405
lwrist -9.5901
lhand -11.1222 -31.3178
lfingers 7.12502
lthumb 14.9028 -1.87386
rfemur 5.45845 21.0217 28.3368
rtibia 7.95704
rfoot -18.1648 -18.7014
rtoes -4.74698
lfemur 15.4471 -32.4827 -17.8107
ltibia -2.4605
lfoot -17.6557 41.27
ltoes -2.61379
500
root 0.964894 17.2701 10.2059 3.24789 -1.23603 -8.34545
lowerback -10.3231 1.51583 5.59217
upperback -10.7803 1.70904 0.740583
thorax -5.45281 0.517822 -2.25402
lowerneck -1.56177 -6.6259 -5.18841
upperneck 28.6787 -11.5491 9.17546
head 10.2193 -5.08288 3.04408
rclavicle 1.82882e-014 -7.95139e-016
rhumerus -36.4447 25.1476 -96.4166
rradius 123.194
rwrist 24.8411
rhand 13.6675 -24.5116
rfingers 7.12502
rthumb 38.596 -50.1461
lclavicle 1.82882e-014 -7.95139e-016
lhumerus -47.017 -21.8399 103.134
lradius 121.461
lwrist -14.1263
lhand -14.2393 -33.7821
lfingers 7.12502
lthumb 11.8983 -4.14018
rfemur 6.05027 20.7422 28.5341
rtibia 8.16709
rfoot -18.3982 -18.511
rtoes -4.56791
lfemur 16.1294 -32.1823 -18.1106
ltibia -2.39058
lfoot -17.6366 40.9722
ltoes -2.87788
501
root 0.966414 17.2682 10.2277 2.83018 -1.19357 -8.19867
lowerback -10.3939 1.47143 5.38201
upperback -10.7986 1.65937 0.769769
thorax -5.44022 0.508282 -2.10786
lowerneck -2.15972 -6.69902 -5.12519
upperneck 30.0168 -11.7684 8.99618
head 10.8517 -5.13845 2.93555
rclavicle 7.7526e-015 7.15625e-015
rhumerus -33.0377 23.8434 -94.3234
rradius 125.488
rwrist 28.7206
rhand 7.44616 -24.0367
rfingers 7.12502
rthumb 32.7003 -51.0996
lclavicle 7.7526e-015 7.15625e-015
lhumerus -43.7868 -19.4507 101.899
lradius 124.672
lwrist -18.2198
lhand -17.5142 -36.1956
lfingers 7.12502
lthumb 8.73915 -6.39651
rfemur 6.45656 20.3457 28.4446
rtibia 8.41121
rfoot -18.631 -18.2252
rtoes -4.40572
lfemur 16.6755 -31.9772 -18.5451
ltibia -2.36495
lfoot -17.775 40.7341
ltoes -2.75851
502
root 0.966809 17.2712 10.2473 2.56763 -1.10398 -8.00299
lowerback -10.4804 1.42496 5.1118
upperback -10.9025 1.61199 0.760368
thorax -5.51215 0.499079 -1.96906
lowerneck -2.51229 -6.66954 -5.42371
upperneck 31.0074 -11.9781 9.54435
head 11.392 -5.16997 3.16506
rclavicle 1.39149e-014 1.59028e-014
rhumerus -29.5957 22.1686 -92.2734
rradius 128.043
rwrist 31.1049
rhand 0.328351 -24.0496
rfingers 7.12502
rthumb 25.9048 -52.3048
lclavicle 1.39149e-014 1.59028e-014
lhumerus -40.3692 -16.9706 100.738
lradius 128.167
lwrist -20.4828
lhand -21.0094 -38.3619
lfingers 7.12502
lthumb 5.3653 -8.44979
rfemur 6.68863 20.0331 28.2809
rtibia 8.63326
rfoot -18.7322 -18.1654
rtoes -4.83929
lfemur 16.9894 -31.8324 -18.9118
ltibia -2.3192
lfoot -17.9768 40.505
ltoes -2.51425
503
root 0.967282 17.278 10.2615 2.48261 -0.919723 -7.82842
lowerback -10.5652 1.44149 4.92688
upperback -11.0442 1.6419 0.647507
thorax -5.61789 0.517802 -1.98229
lowerneck -2.89768 -6.77551 -5.49713
upperneck 31.666 -12.3362 9.94211
head 11.8101 -5.26464 3.28038
rclavicle 1.59028e-015 -1.59028e-014
rhumerus -26.0727 20.0637 -90.316
rradius 130.936
rwrist 32.4781
rhand -6.05495 -25.1471
rfingers 7.12502
rthumb 19.7795 -54.1607
lclavicle 1.59028e-015 -1.59028e-014
lhumerus -36.5007 -14.5447 99.4394
lradius 131.798
lwrist -21.2649
lhand -24.6859 -40.803
lfingers 7.12502
lthumb 1.81494 -10.8309
rfemur 6.72368 19.8275 28.1237
rtibia 8.82555
rfoot -18.7864 -18.3127
rtoes -5.37659
lfemur 16.979 -31.7136 -19.084
ltibia -2.21403
lfoot -17.7958 40.2953
ltoes -3.03162
504
root 0.969154 17.2854 10.271 2.54047 -0.642207 -7.6823
lowerback -10.6457 1.44365 4.80741
upperback -11.1974 1.64995 0.532581
thorax -5.74011 0.520825 -2.0358
lowerneck -3.30935 -6.90818 -5.36094
upperneck 31.9895 -12.652 10.12
head 12.0676 -5.34509 3.27462
rclavicle -1.51076e-014 2.22639e-014
rhumerus -22.5779 17.7559 -88.3545
rradius 134.023
rwrist 34.0451
rhand -11.7846 -26.7035
rfingers 7.12502
rthumb 14.2646 -56.1936
lclavicle -1.51076e-014 2.22639e-014
lhumerus -32.3279 -11.7456 97.9904
lradius 135.411
lwrist -22.173
lhand -28.9818 -43.6627
lfingers 7.12502
lthumb -2.33408 -13.6957
rfemur 6.63032 19.6925 27.9663
rtibia 8.97021
rfoot -18.8981 -18.5113
rtoes -5.45593
lfemur 16.7507 -31.6567 -19.0981
ltibia -2.1493
lfoot -17.4325 40.0809
ltoes -3.78365
505
root 0.97137 17.2897 10.2815 2.66184 -0.410479 -7.67063
lowerback -10.7399 1.35358 4.77423
upperback -11.3679 1.53675 0.611582
thorax -5.88721 0.464607 -1.94047
lowerneck -3.50759 -6.88365 -5.37875
upperneck 31.9659 -12.6572 10.2675
head 12.1125 -5.32505 3.32534
rclavicle -4.77083e-015 1.19271e-014
rhumerus -19.0733 15.4091 -86.286
rradius 136.96
rwrist 35.816
rhand -17.8273 -29.2285
rfingers 7.12502
rthumb 8.43705 -59.04
lclavicle -4.77083e-015 1.19271e-014
lhumerus -28.0938 -8.1345 96.4529
lradius 138.989
lwrist -23.0186
lhand -33.6794 -45.917
lfingers 7.12502
lthumb -6.87012 -16.0485
rfemur 6.53129 19.6419 27.9467
rtibia 9.00286
rfoot -18.9677 -18.7151
rtoes -5.54479
lfemur 16.6368 -31.8076 -19.0376
ltibia -2.25954
lfoot -17.3959 40.0572
ltoes -3.63104
506
root 0.975355 17.2907 10.2916 2.83515 -0.195346 -7.74896
lowerback -10.7963 1.29554 4.89204
upperback -11.5576 1.46044 0.694816
thorax -6.07343 0.415262 -1.92329
lowerneck -3.46205 -6.88034 -5.44649
upperneck 31.5112 -12.6277 10.4131
head 11.928 -5.31909 3.38837
rclavicle 3.29983e-014 -1.03368e-014
rhumerus -15.5576 12.5346 -84.2642
rradius 139.602
rwrist 37.4761
rhand -24.3397 -31.4245
rfingers 7.12502
rthumb 2.14924 -61.3934
lclavicle 3.29983e-014 -1.03368e-014
lhumerus -23.7883 -4.07478 94.8317
lradius 142.343
lwrist -23.0232
lhand -37.4303 -50.2749
lfingers 7.12502
lthumb -10.4897 -20.5566
rfemur 6.48017 19.7062 28.0305
rtibia 8.83433
rfoot -18.99 -18.9593
rtoes -5.46453
lfemur 16.631 -32.1547 -18.9711
ltibia -2.50395
lfoot -17.3329 40.2629
ltoes -3.52932
